# xmcd CD database file
#
# Track frame offsets:
#	150
#	18750
#	36075
#	56925
#	75825
#	87825
#	106125
#	124950
#	141825
#	169050
#	187200
#
# Disc length: 2872 seconds
#
# Revision: 2
# Processed by: cddbd v1.5.2PL0 Copyright (c) Steve Scherf et al.
# Submitted via: jetAudio 7
#
DISCID=8b0b360b
DTITLE=Western Union - Eig'ne Wege Geh'n
DYEAR=1992
DGENRE=Country
TTITLE0=Mädchen Aus Berlin
TTITLE1=Komm Baby Tanz Mit Mir
TTITLE2=Eig'ne Wege Geh'n
TTITLE3=Unter Allen Männern, Bin Ich Der LKW
TTITLE4=An Meinen Nächsten
TTITLE5=Was Du Mit Mir Machst Mädchen...
TTITLE6=Doktor Countrymusic
TTITLE7=Danke
TTITLE8=100% Countryfan
TTITLE9=Wer Zuletzt Lacht...
TTITLE10=Abschied
EXTD=
EXTT0=
EXTT1=
EXTT2=
EXTT3=
EXTT4=
EXTT5=
EXTT6=
EXTT7=
EXTT8=
EXTT9=
EXTT10=
PLAYORDER=
